<mxfile host="app.diagrams.net" modified="2023-06-01T04:15:20.918Z" agent="Mozilla/5.0 (Macintosh; Intel Mac OS X 10_15_7) AppleWebKit/605.1.15 (KHTML, like Gecko) Version/16.3 Safari/605.1.15" version="21.3.6" etag="baepkaIWLMAuNZhwukcW" type="github">
  <diagram name="Page-1" id="J6JiVOTDGWQl7JvL_wLo">
    <mxGraphModel>
      <root>
        <mxCell id="0" />
        <mxCell id="1" parent="0" />
      </root>
    </mxGraphModel>
  </diagram>
</mxfile>
